<?xml version="1.0" encoding="utf-8"?>
<!-- Generator: Adobe Illustrator 27.9.0, SVG Export Plug-In . SVG Version: 6.00 Build 0)  -->
<svg version="1.1" id="레이어_1" xmlns="http://www.w3.org/2000/svg" xmlns:xlink="http://www.w3.org/1999/xlink" x="0px"
	 y="0px" viewBox="0 0 24 24" style="enable-background:new 0 0 24 24;" xml:space="preserve">
<style type="text/css">
	.st0{fill:#20C997;}
</style>
<path class="st0" d="M3,0C1.3,0,0,1.3,0,3v18c0,1.7,1.3,3,3,3h18c1.7,0,3-1.3,3-3V3c0-1.7-1.3-3-3-3H3z M9.9,6.2
	c0.6,0,1,0.3,1.1,0.9l1.5,8.3c0.5-0.6,0.8-1.1,1.1-1.6c0.5-0.7,0.9-1.4,1.3-2.3c0.4-0.9,0.6-1.6,0.6-2.3c0-0.4-0.1-0.7-0.3-1
	c-0.2-0.3-0.6-0.6-1.2-1c0.6-0.8,1.4-1.1,2.2-1.1c0.5,0,0.9,0.1,1.2,0.4c0.3,0.3,0.5,0.7,0.5,1.3c0,0.9-0.4,2.1-1.2,3.5
	c-0.8,1.4-2.2,3.5-4.4,6.2l-2.2,0.2L8.4,8.2H6.1V7.2C6.7,7,7.4,6.8,8.2,6.6C9.1,6.4,9.6,6.2,9.9,6.2z"/>
</svg>
